<?xml version="1.0" encoding="UTF-8"?>
<svg id="Layer_1" xmlns="http://www.w3.org/2000/svg" version="1.1" viewBox="0 0 365.96 354.72">
	<!-- Generator: Adobe Illustrator 29.5.1, SVG Export Plug-In . SVG Version: 2.1.0 Build 141)  -->
	<defs>
		<style>
			.st0 {
			fill: #e4b363;
			}

			.st1 {
			fill: #fff;
			}

			.st2, .st3 {
			isolation: isolate;
			}

			.st3 {
			opacity: .75;
			}

			.st3, .st4 {
			fill: #2f7a45;
			}

			.st5 {
			fill: none;
			stroke: #2f7a45;
			stroke-linecap: round;
			stroke-linejoin: round;
			stroke-width: 5px;
			}
		</style>
	</defs>
	<g>
		<g class="st2">
			<g class="st2">
				<path class="st4" d="M113.99,251.56c-2.35,4.73-5.98,8.61-10.88,11.63-4.9,3.02-10.45,4.53-16.64,4.53-10.33,0-18.61-2.87-24.83-8.61-6.22-5.74-9.33-13.87-9.33-24.39s3.07-19.55,9.21-26.06c6.14-6.51,14.12-9.77,23.92-9.77,7.05,0,12.89,1.57,17.52,4.71,4.63,3.14,8.18,7.46,10.65,12.97l-13.27,4.97c-1.52-3.37-3.46-5.81-5.82-7.31-2.37-1.5-5.3-2.25-8.79-2.25-5.14,0-9.36,2.03-12.67,6.1-3.31,4.07-4.97,9.26-4.97,15.57,0,6.65,1.7,11.77,5.11,15.36,3.4,3.59,8.01,5.38,13.83,5.38,3.22,0,6.03-.74,8.45-2.23,2.41-1.49,4.28-3.68,5.62-6.59l12.9,5.99Z"/>
				<path class="st4" d="M165.92,246.96h-31c.22,3.06,1.28,5.5,3.18,7.31,1.9,1.81,4.4,2.71,7.5,2.71,1.89,0,3.61-.46,5.17-1.39,1.56-.93,2.96-2.32,4.2-4.18l10.77,6.13c-2.72,3.53-5.77,6.1-9.14,7.73-3.37,1.62-7.12,2.44-11.23,2.44-7.86,0-13.99-2.13-18.38-6.38-4.39-4.25-6.59-10.19-6.59-17.8s2.29-14.14,6.87-18.75,10.21-6.92,16.89-6.92,12.29,2.06,16.08,6.17c3.79,4.12,5.69,10.3,5.69,18.56v4.36ZM152.33,237.68c0-3.25-.69-5.68-2.07-7.31-1.38-1.62-3.23-2.44-5.55-2.44-2.78,0-5.04.93-6.75,2.79-1.72,1.86-2.76,4.18-3.13,6.96h17.5Z"/>
				<path class="st4" d="M174.88,266.55v-70.36h14.67v70.36h-14.67Z"/>
				<path class="st4" d="M232.8,263.16c-1.45,1.33-3.25,2.42-5.38,3.27-2.14.85-4.46,1.28-6.96,1.28-5.45,0-9.48-1.25-12.11-3.76-2.63-2.51-3.95-6.25-3.95-11.23v-22.88h-7.7v-10.81h7.7v-12.11l14.62-2.6v14.71h11.42v10.81h-11.42v22.79c0,1.46.32,2.55.95,3.3.63.74,1.52,1.11,2.67,1.11.68,0,1.37-.12,2.06-.35s1.43-.7,2.21-1.42l5.89,7.89Z"/>
				<path class="st4" d="M247.28,212.81c-2.54,0-4.61-.78-6.22-2.34-1.61-1.56-2.41-3.5-2.41-5.82s.8-4.38,2.41-5.89c1.61-1.52,3.68-2.27,6.22-2.27s4.65.76,6.24,2.27c1.59,1.52,2.39,3.48,2.39,5.89s-.8,4.38-2.39,5.89c-1.59,1.52-3.67,2.27-6.24,2.27ZM254.62,266.55h-14.67v-47.53h14.67v47.53Z"/>
				<path class="st4" d="M308.96,255.55c-2.13,3.99-5.04,7.02-8.7,9.07-3.67,2.06-7.87,3.09-12.6,3.09-7.61,0-13.56-2.19-17.84-6.57-4.29-4.38-6.43-10.11-6.43-17.2,0-8.08,2.37-14.43,7.1-19.07,4.73-4.64,10.89-6.96,18.47-6.96,4.67,0,8.79,1.09,12.34,3.27,3.56,2.18,5.96,5.36,7.19,9.54l-11.88,4.41c-.93-2.01-2.05-3.49-3.36-4.43-1.32-.94-2.93-1.42-4.85-1.42-2.88,0-5.28,1.11-7.22,3.32-1.93,2.21-2.9,5.67-2.9,10.37,0,4.46.91,7.72,2.74,9.79,1.83,2.07,4.15,3.11,6.96,3.11,2.13,0,3.94-.46,5.41-1.37,1.47-.91,2.82-2.37,4.06-4.39l11.51,5.43Z"/>
			</g>
		</g>
		<g class="st2">
			<g class="st2">
				<path class="st0" d="M59.55,276.35l-14.47,42.01h-10.72l-14.3-42.01h10.08l8.88,28.24c.21.66.38,1.24.5,1.71s.25,1.05.41,1.71h.18c.16-.7.28-1.29.38-1.77.1-.48.25-1.07.47-1.77l8.82-28.12h9.79Z"/>
				<path class="st0" d="M68.13,284.43c-1.6,0-2.91-.49-3.93-1.48-1.02-.99-1.52-2.21-1.52-3.68s.51-2.76,1.52-3.72c1.02-.96,2.32-1.44,3.93-1.44s2.93.48,3.94,1.44c1.01.96,1.51,2.2,1.51,3.72s-.5,2.76-1.51,3.72c-1.01.96-2.32,1.44-3.94,1.44ZM72.76,318.36h-9.26v-30h9.26v30Z"/>
				<path class="st0" d="M99.31,296.45c-.64-.21-1.28-.38-1.9-.48-.63-.11-1.24-.16-1.85-.16-1.84,0-3.33.74-4.48,2.21-1.15,1.47-1.73,3.48-1.73,6.02v14.33h-9.26v-30h9.26v5.33h.12c.72-1.95,1.75-3.42,3.08-4.39,1.33-.98,2.92-1.46,4.78-1.46.72,0,1.41.05,2.07.16.65.11,1.3.29,1.95.54l-2.02,7.91Z"/>
				<path class="st0" d="M125.15,316.22c-.92.84-2.05,1.53-3.4,2.07s-2.81.81-4.39.81c-3.44,0-5.99-.79-7.65-2.37-1.66-1.58-2.49-3.95-2.49-7.09v-14.44h-4.86v-6.83h4.86v-7.65l9.23-1.64v9.29h7.21v6.83h-7.21v14.38c0,.92.2,1.61.6,2.08.4.47.96.7,1.68.7.43,0,.86-.07,1.3-.22s.9-.44,1.39-.89l3.72,4.98Z"/>
				<path class="st0" d="M158.28,318.33h-9.26v-3.81h-.12c-.94,1.37-2.25,2.47-3.94,3.3-1.69.83-3.38,1.25-5.08,1.25-3.48,0-6.11-1.05-7.9-3.16s-2.68-5.09-2.68-8.94v-18.63h9.23v17.23c0,1.91.41,3.44,1.23,4.58s2.04,1.71,3.66,1.71,2.96-.61,4.01-1.82,1.58-2.74,1.58-4.6v-17.11h9.26v30Z"/>
				<path class="st0" d="M190.45,318.36h-8.76v-3.37h-.12c-1.11,1.37-2.42,2.39-3.91,3.08s-3.17,1.03-5.02,1.03c-2.54,0-4.74-.79-6.59-2.36-1.86-1.57-2.78-3.74-2.78-6.49s.89-4.92,2.67-6.72c1.78-1.81,4.39-2.9,7.85-3.27l7.97-.85v-.91c0-1.46-.46-2.57-1.39-3.31-.93-.74-2.08-1.11-3.47-1.11s-2.61.32-3.66.97-2.01,1.6-2.87,2.87l-6.18-3.69c1.07-1.72,2.79-3.25,5.16-4.58,2.36-1.34,5.16-2.01,8.38-2.01,4.14,0,7.3,1.06,9.48,3.19s3.27,5.33,3.27,9.61v17.93ZM181.75,306.17v-1.14l-5.98.59c-1.39.16-2.4.54-3.03,1.16-.63.62-.95,1.45-.95,2.5,0,.94.35,1.71,1.05,2.33s1.59.92,2.67.92c1.84,0,3.33-.6,4.5-1.8,1.16-1.2,1.74-2.72,1.74-4.56Z"/>
				<path class="st0" d="M197.19,318.36v-44.41h9.26v44.41h-9.26Z"/>
				<path class="st0" d="M263.11,314.14c-2.01,1.46-4.33,2.66-6.96,3.57s-5.28,1.38-7.95,1.38c-6.95,0-12.39-1.87-16.32-5.61s-5.89-8.89-5.89-15.45,1.97-11.98,5.92-16.14,8.92-6.24,14.91-6.24c4.22,0,7.71.8,10.46,2.4s4.82,3.72,6.21,6.36l-7.65,3.81c-.98-1.62-2.17-2.78-3.57-3.49s-2.97-1.05-4.69-1.05c-3.32,0-6.07,1.2-8.25,3.59s-3.27,5.76-3.27,10.09,1.08,7.82,3.24,10.17,5,3.52,8.51,3.52c1.05,0,2.09-.12,3.12-.37s1.93-.61,2.71-1.1v-6.83h-8.41v-7.85h17.87v19.25Z"/>
				<path class="st0" d="M284.58,319.09c-4.86,0-8.78-1.41-11.76-4.22s-4.46-6.61-4.44-11.4c.02-4.77,1.52-8.6,4.5-11.5s7.02-4.35,12.11-4.35,8.96,1.45,11.81,4.34,4.28,6.55,4.28,10.99c0,4.8-1.54,8.7-4.63,11.67s-7.04,4.47-11.87,4.47ZM284.87,311.89c2.27,0,3.96-.82,5.08-2.46s1.68-3.74,1.68-6.3-.57-4.58-1.7-6.06-2.84-2.23-5.13-2.23-3.96.8-5.19,2.39-1.85,3.64-1.85,6.14.59,4.55,1.77,6.14,2.95,2.39,5.32,2.39Z"/>
				<path class="st0" d="M306.49,318.36v-44.41h9.26v44.41h-9.26Z"/>
				<path class="st0" d="M341.21,281.65c-.61-.41-1.19-.71-1.74-.91s-1.12-.29-1.68-.29c-1.02,0-1.79.32-2.33.97s-.81,1.63-.81,2.96v3.98h6.86v6.83h-6.86v23.17h-9.23v-23.17h-5.04v-6.83h5.04v-3.81c0-3.65,1-6.45,2.99-8.39s4.89-2.92,8.7-2.92c1.35,0,2.63.15,3.85.45s2.47.78,3.74,1.42l-3.49,6.53Z"/>
			</g>
		</g>
		<g>
			<g>
				<path class="st3" d="M217.79,110.66c-13.13,6.4-28.23,7.5-42.14,3.06-.13-.04-.26-.08-.39-.13-2.48-.81-4.91-1.79-7.25-2.94-.12-.06-.25-.12-.37-.18-9.03-4.48-16.73-11.31-22.26-19.74,4.19-2.03,5.51.7,8.68,1.85,23.84,8.59,48.06,8.15,65.76-12.25,16.04-18.48,14.95-39.86,3.77-60.3-1.99-3.64-6.14-6.54-4.69-11-.12-.06-.25-.12-.37-.19.12.06.25.12.37.19,18.92,9.73,30.83,29.25,30.83,50.53s-12.21,41.3-31.56,50.9c-.12.08-.25.14-.38.2h0Z"/>
				<g>
					<path class="st1" d="M218.53,8.85c.12.06.25.12.37.19-1.46,4.46,2.7,7.36,4.69,11,11.18,20.44,12.27,41.82-3.77,60.3-17.7,20.4-41.92,20.84-65.76,12.25-3.17-1.15-4.49-3.88-8.68-1.85-31.75-48.4,21.5-107.99,73.15-81.89Z"/>
					<g>
						<path class="st4" d="M181.2,72.24c2.96-.2,5.92,1.36,8.1,3.2-2.08.49-4.06.02-6.22.94-3.67,1.57-6.09,8.05-2.83,11.12-7.5-1.26-8.04-14.67.95-15.26h0Z"/>
						<path class="st4" d="M161.6,25.88c3.46-.78,7.37.51,9.99,2.83,0,.36-4.76.47-5.84.94-4.06,1.77-5.62,7.77-3.01,11.31-6.33-1.13-7.75-13.58-1.14-15.08h0Z"/>
						<path class="st4" d="M215.49,28.9c2.5-.24,6.76,1.15,8.1,3.58-4.1-.89-9.53,1.43-10.18,6.03-.34,2.45.83,3.82.57,5.84-6.18-3.32-6.74-14.65,1.51-15.45Z"/>
						<path class="st4" d="M189.48,35.31c3.38-.4,6.28,1.32,8.85,3.2-7.32-.86-13.19,4.63-9.42,11.68-6.94-1.35-7.45-13.94.57-14.88h0Z"/>
						<path class="st4" d="M199.28,58.67c3.02-.42,6.6.69,8.48,3.2-4.48-.66-9.73,1.86-10.18,6.78-.18,2,1.15,3.44.57,5.09-6.04-3.17-6.67-14,1.13-15.07h0Z"/>
						<path class="st4" d="M183.08,10.81c3.49-.7,7.02.49,9.61,2.83-3.32.37-6.93.33-9.04,3.39-1.96,2.83-1.68,5.91-.19,8.85-6.38-2.03-7.18-13.69-.38-15.07Z"/>
						<path class="st4" d="M161.6,51.13c1.88-.16,5.57.6,6.6,2.45-7.02-.08-11,7.03-6.78,12.81l-.94.57c-6.66-3.2-7.44-15.1,1.12-15.83h0Z"/>
					</g>
				</g>
			</g>
			<path class="st5" d="M249.73,59.58c0-21.28-11.91-40.8-30.83-50.53-.12-.06-.25-.12-.37-.19-51.66-26.11-104.9,33.48-73.16,81.88,5.53,8.44,13.22,15.26,22.26,19.74.12.06.25.12.37.18,2.35,1.15,4.77,2.12,7.25,2.94.13.04.26.09.39.13,13.91,4.43,29.01,3.34,42.14-3.06.12-.06.25-.12.37-.18,19.37-9.61,31.58-29.36,31.58-50.91h0Z"/>
		</g>
	</g>
	<g>
		<rect class="st4" x="116.67" y="96.75" width="14.41" height="14.41"/>
		<rect class="st4" x="91.59" y="110.15" width="17.86" height="17.86"/>
		<rect class="st4" x="95.56" y="71.48" width="15.02" height="15.02"/>
		<rect class="st4" x="64.67" y="123.75" width="17.86" height="17.86"/>
		<rect class="st4" x="38.66" y="102.24" width="17.86" height="17.86"/>
		<rect class="st4" x="42.58" y="147.7" width="17.86" height="17.86"/>
		<rect class="st4" x="66.22" y="86.5" width="17.86" height="17.86"/>
		<rect class="st4" x="25.57" y="173.63" width="12.18" height="12.18"/>
		<rect class="st0" x="32.57" y="193.45" width="10.35" height="10.35"/>
		<rect class="st4" x="103.06" y="146.28" width="10.35" height="10.35"/>
		<rect class="st4" x="78.91" y="160.29" width="10.35" height="10.35"/>
		<rect class="st4" x="51.51" y="178.15" width="10.35" height="10.35"/>
		<rect class="st4" x="12.03" y="155.11" width="10.35" height="10.35"/>
		<rect class="st4" x="22.39" y="131.77" width="10.35" height="10.35"/>
		<rect class="st4" x="4.12" y="180.63" width="10.35" height="10.35"/>
		<rect class="st4" x="145.75" y="119.08" width="13.6" height="13.6"/>
		<rect class="st0" x="9.3" y="222.45" width="10.35" height="10.35" transform="translate(-105.03 33.36) rotate(-27.96)"/>
		<rect class="st4" x="122.14" y="134.03" width="10.35" height="10.35"/>
		<rect class="st0" x="26.11" y="213.53" width="10.35" height="10.35" transform="translate(-126.48 64.05) rotate(-37.43)"/>
		<rect class="st0" x="1.45" y="198.65" width="7.92" height="7.92" transform="translate(-100.58 29.85) rotate(-30)"/>
		<rect class="st0" x="33.79" y="236.49" width="7.92" height="7.92" transform="translate(-115.17 51.09) rotate(-30)"/>
		<rect class="st0" x="17.74" y="199.84" width="7.92" height="7.92" transform="translate(-98.99 38.15) rotate(-30)"/>
	</g>
</svg>