<?xml version="1.0" encoding="UTF-8"?>
<svg id="Layer_1" xmlns="http://www.w3.org/2000/svg" version="1.1" viewBox="0 0 116 119">
  <!-- Generator: Adobe Illustrator 29.5.1, SVG Export Plug-In . SVG Version: 2.1.0 Build 141)  -->
  <defs>
    <style>
      .st0 {
        fill: #e4b363;
      }

      .st1 {
        fill: #fff;
      }
    </style>
  </defs>
  <path class="st0" d="M58.34,19.63c1.54,0,2.79-1.25,2.79-2.79v-4.06c0-1.54-1.25-2.79-2.79-2.79s-2.79,1.25-2.79,2.79v4.05c0,1.54,1.25,2.79,2.79,2.79Z"/>
  <path class="st0" d="M38.06,34.33h-4.06c-1.54,0-2.79,1.25-2.79,2.79s1.25,2.79,2.79,2.79h4.06c1.54,0,2.79-1.25,2.79-2.79s-1.25-2.79-2.78-2.79Z"/>
  <path class="st0" d="M82.67,34.33h-4.06c-1.54,0-2.79,1.25-2.79,2.79s1.25,2.79,2.79,2.79h4.06c1.54,0,2.79-1.25,2.79-2.79s-1.25-2.79-2.79-2.79Z"/>
  <path class="st0" d="M73.86,24.87c.71,0,1.43-.27,1.97-.82l2.87-2.87c1.09-1.09,1.09-2.85,0-3.94-1.09-1.09-2.85-1.09-3.94,0l-2.87,2.87c-1.09,1.09-1.09,2.85,0,3.94.54.54,1.26.82,1.97.82Z"/>
  <path class="st0" d="M40.84,24.05c.54.54,1.26.82,1.97.82s1.43-.27,1.97-.82c1.09-1.09,1.09-2.85,0-3.94l-2.87-2.87c-1.09-1.09-2.85-1.09-3.94,0-1.09,1.09-1.09,2.85,0,3.94l2.87,2.87Z"/>
  <path class="st1" d="M58.34,46.84c5.69,0,10.31-4.63,10.31-10.31s-4.63-10.31-10.31-10.31-10.31,4.63-10.31,10.31,4.63,10.31,10.31,10.31ZM58.34,31.79c2.61,0,4.74,2.13,4.74,4.74s-2.13,4.74-4.74,4.74-4.74-2.13-4.74-4.74,2.13-4.74,4.74-4.74Z"/>
  <path class="st1" d="M69.19,48.5s-.04-.01-.06-.02l-2.66-.81c-.87-.27-1.81-.09-2.53.47l-5.6,4.37-5.6-4.37c-.72-.56-1.66-.73-2.53-.47l-2.66.81s-.04.01-.06.02c-4.18,1.39-6.99,5.29-6.99,9.69v16.23c0,.54.16,1.08.46,1.53l5.51,8.39v21.88c0,1.54,1.25,2.79,2.79,2.79h18.17c1.54,0,2.79-1.25,2.79-2.79v-21.88l5.51-8.39c.3-.45.46-.99.46-1.53v-16.23c0-4.4-2.81-8.3-6.99-9.69ZM70.61,73.59l-5.51,8.39c-.3.45-.46.99-.46,1.53v19.92h-12.6v-19.92c0-.54-.16-1.08-.46-1.53l-5.51-8.39v-15.39c0-1.99,1.26-3.76,3.15-4.4l1.23-.38,6.17,4.82c1.01.79,2.42.79,3.43,0l6.17-4.82,1.23.38c1.89.64,3.15,2.41,3.15,4.4v15.39Z"/>
</svg>