<?xml version="1.0" encoding="UTF-8"?>
<svg id="Layer_1" xmlns="http://www.w3.org/2000/svg" version="1.1" viewBox="0 0 102 102">
  <!-- Generator: Adobe Illustrator 29.5.1, SVG Export Plug-In . SVG Version: 2.1.0 Build 141)  -->
  <defs>
    <style>
      .st0 {
        fill: #fff;
        fill-rule: evenodd;
      }
    </style>
  </defs>
  <path class="st0" d="M50.58,21.54c-19.16,0-34.72,15.55-34.72,34.72s15.55,34.72,34.72,34.72,34.72-15.55,34.72-34.72-15.55-34.72-34.72-34.72ZM9.55,56.26c0-22.65,18.38-41.03,41.03-41.03s41.03,18.38,41.03,41.03-18.38,41.03-41.03,41.03S9.55,78.91,9.55,56.26Z"/>
  <path class="st0" d="M34.8,7.86c0,1.74,1.41,3.16,3.16,3.16h25.25c1.74,0,3.16-1.41,3.16-3.16s-1.41-3.16-3.16-3.16h-25.25c-1.74,0-3.16,1.41-3.16,3.16Z"/>
  <path class="st0" d="M50.58,32.06c1.74,0,3.16,1.41,3.16,3.16v21.04c0,1.74-1.41,3.16-3.16,3.16s-3.16-1.41-3.16-3.16v-21.04c0-1.74,1.41-3.16,3.16-3.16Z"/>
</svg>