<?xml version="1.0" encoding="UTF-8"?>
<svg id="Layer_1" xmlns="http://www.w3.org/2000/svg" version="1.1" viewBox="0 0 99 100">
  <!-- Generator: Adobe Illustrator 29.5.1, SVG Export Plug-In . SVG Version: 2.1.0 Build 141)  -->
  <defs>
    <style>
      .st0 {
        stroke: #e4b363;
      }

      .st0, .st1 {
        fill: none;
        stroke-linecap: round;
        stroke-linejoin: round;
        stroke-width: 5px;
      }

      .st1 {
        stroke: #fff;
      }
    </style>
  </defs>
  <path class="st0" d="M37.12,25.25v-8.25M53.62,25.25v-8.25M70.12,25.25v-8.25"/>
  <path class="st1" d="M12.38,83h74.25M33,62.38v-16.5c0-1.09.43-2.14,1.21-2.92.77-.77,1.82-1.21,2.92-1.21h33c1.09,0,2.14.43,2.92,1.21.77.77,1.21,1.82,1.21,2.92v16.5c0,5.47-2.17,10.72-6.04,14.58-3.87,3.87-9.11,6.04-14.58,6.04s-10.72-2.17-14.58-6.04c-3.87-3.87-6.04-9.11-6.04-14.58ZM33,62.38c.01,1.38.15,2.77.41,4.12h-8.66c-2.19,0-4.29-.87-5.83-2.42-1.55-1.55-2.42-3.65-2.42-5.83s.87-4.29,2.42-5.83c1.55-1.55,3.65-2.42,5.83-2.42h8.25v12.38Z"/>
</svg>